<svg id="svg" version="1.1" xmlns="http://www.w3.org/2000/svg" xmlns:xlink="http://www.w3.org/1999/xlink" width="400" height="400" viewBox="0, 0, 400,400"><g id="svgg"><path id="path0" d="M170.313 105.665 C 112.270 116.241,51.724 147.601,8.203 189.628 C -3.329 200.764,-2.173 203.127,26.094 226.202 C 138.071 317.611,261.929 317.611,373.906 226.202 C 402.173 203.127,403.329 200.764,391.797 189.628 C 353.415 152.563,297.749 121.609,246.875 109.041 C 233.995 105.860,181.862 103.560,170.313 105.665 M191.882 158.203 L 192.359 165.625 165.711 165.625 L 139.063 165.625 139.063 158.854 C 139.063 149.597,138.177 149.874,166.313 150.353 L 191.406 150.781 191.882 158.203 M261.719 203.125 L 261.719 238.281 200.781 238.281 L 139.844 238.281 139.424 202.716 L 139.004 167.151 200.361 167.560 L 261.719 167.969 261.719 203.125 " stroke="none" fill="#000000" fill-rule="evenodd"></path></g></svg>